<svg width="77" height="129" viewBox="0 0 77 129" fill="none" xmlns="http://www.w3.org/2000/svg">
<path d="M55.982 107.754C56.5856 107.047 57.1457 106.297 57.6533 105.503C60.1284 101.634 61.3008 96.7245 60.5024 92.0581C59.7037 87.3908 56.8331 83.0663 52.8165 81.0677C48.5494 88.6158 46.1501 97.049 52.4597 105.488C49.7555 103.739 47.0873 101.971 44.5555 100.085C43.2662 99.1266 42.0098 98.126 40.7879 97.0855C41.4034 96.4211 41.9762 95.7114 42.498 94.9559C44.9507 91.4064 46.2149 86.8376 45.6215 82.4302C45.028 78.0222 42.4778 73.8667 38.7739 71.8571C34.7689 78.3873 32.2895 85.708 36.7034 93.3223C35.8867 92.5073 35.0903 91.6717 34.3152 90.8156C31.0675 87.3117 28.2477 83.4207 25.927 79.2697C26.7764 78.8095 27.5962 78.2853 28.3774 77.693C31.8158 75.0871 34.4436 71.1413 35.2562 66.7691C36.069 62.3962 34.9439 57.6522 32.0528 54.5864C26.28 59.4791 21.6805 65.5698 23.3196 74.019C20.9141 68.5107 19.3597 62.6671 18.8029 56.7448C19.7705 56.6358 20.7347 56.4552 21.6879 56.1958C25.8512 55.0641 29.7635 52.3867 32.1513 48.635C34.5397 44.8829 35.2694 40.0623 33.7339 36.1381C26.8663 38.4137 20.5849 42.1066 18.6148 49.8105C18.8626 43.7229 20.2167 37.6576 22.8351 31.8905C23.6624 32.1719 24.5119 32.4003 25.3819 32.5676C29.6186 33.3832 34.3097 32.7005 38.1049 30.3823C41.9006 28.0638 44.6772 24.0562 45.0252 19.8567C38.7698 19.0028 32.4404 19.3142 27.5013 23.4281C27.5836 23.2975 27.6659 23.1669 27.7485 23.0368C28.9087 21.235 30.118 19.4552 31.3959 17.7275C44.6232 17.5133 50.1306 5.66007 49.124 0.26154C44.8006 -0.572048 41.0811 0.634766 37.4484 3.20092C33.8162 5.76745 31.33 9.80348 30.4005 14.0166C30.2623 14.6415 30.1573 15.2694 30.0832 15.8985C29.5734 16.5601 29.0728 17.2277 28.5795 17.8991C26.2413 21.1321 24.0763 24.4809 22.1815 27.9914C23.2234 20.1281 18.7879 14.3606 13.2811 9.68496C10.3866 12.7483 9.25767 17.491 10.0664 21.8646C10.8754 26.2376 13.4995 30.1856 16.9359 32.7947C17.6777 33.3585 18.4548 33.8614 19.2592 34.3058C17.2915 39.5085 16.2385 45.014 16.0321 50.5642C13.0221 44.3118 6.93061 41.5645 0.454749 40.0551C-0.718441 44.1028 0.446388 48.837 3.16562 52.3567C5.88486 55.8758 10.024 58.1866 14.2731 58.9357C14.9754 59.06 15.6796 59.1416 16.3834 59.186C17.0364 64.7214 18.5029 70.1673 20.7152 75.2649C14.9215 69.2182 7.40899 69.3302 0.156575 71.0479C0.908977 75.1941 4.06033 78.9145 8.06237 80.8548C12.0638 82.795 16.7991 83.0207 20.937 81.7991C21.809 81.5418 22.6538 81.223 23.4693 80.8505C26.2406 85.8461 29.6715 90.4602 33.5976 94.6105C26.5159 91.3001 19.7188 93.7112 13.6132 97.4559C15.6228 101.16 19.7783 103.71 24.1863 104.304C28.5937 104.897 33.1625 103.633 36.712 101.18C37.4337 100.681 38.1133 100.136 38.7518 99.5517C39.9997 100.638 41.2831 101.682 42.5982 102.682C45.2383 104.694 48.0006 106.567 50.767 108.4C41.3886 104.472 33.8486 108.618 27.5373 114.334C30.3691 117.814 35.2187 119.665 39.9473 119.419C44.6752 119.173 49.2078 116.951 52.4389 113.687C53.271 112.847 54.0193 111.941 54.6851 110.986C61.8782 115.75 69.2107 120.827 73.9975 128.077C74.3401 128.596 75.0315 128.751 75.559 128.421L76.1105 128.077C77.0357 127.5 77.2796 126.264 76.6502 125.373C71.3342 117.849 63.6859 112.714 55.982 107.754Z" fill="#0A59BE"/>
</svg>
