<svg width="77" height="129" viewBox="0 0 77 129" fill="none" xmlns="http://www.w3.org/2000/svg">
<path d="M21.018 107.754C20.4144 107.047 19.8543 106.297 19.3467 105.503C16.8716 101.634 15.6992 96.7245 16.4976 92.0581C17.2963 87.3908 20.1669 83.0663 24.1835 81.0677C28.4506 88.6158 30.8499 97.049 24.5403 105.488C27.2445 103.739 29.9127 101.971 32.4445 100.085C33.7338 99.1266 34.9902 98.126 36.2121 97.0855C35.5966 96.4211 35.0238 95.7114 34.502 94.9559C32.0493 91.4064 30.7851 86.8376 31.3785 82.4302C31.972 78.0222 34.5222 73.8667 38.2261 71.8571C42.2311 78.3873 44.7105 85.708 40.2966 93.3223C41.1133 92.5073 41.9097 91.6717 42.6848 90.8156C45.9325 87.3117 48.7523 83.4207 51.073 79.2697C50.2236 78.8095 49.4038 78.2853 48.6226 77.693C45.1842 75.0871 42.5564 71.1413 41.7438 66.7691C40.931 62.3962 42.0561 57.6522 44.9472 54.5864C50.72 59.4791 55.3195 65.5698 53.6804 74.019C56.0859 68.5107 57.6403 62.6671 58.1971 56.7448C57.2295 56.6358 56.2653 56.4552 55.3121 56.1958C51.1488 55.0641 47.2365 52.3867 44.8487 48.635C42.4603 44.8829 41.7306 40.0623 43.2661 36.1381C50.1337 38.4137 56.4151 42.1066 58.3852 49.8105C58.1374 43.7229 56.7833 37.6576 54.1649 31.8905C53.3376 32.1719 52.4881 32.4003 51.6181 32.5676C47.3814 33.3832 42.6903 32.7005 38.8951 30.3823C35.0994 28.0638 32.3228 24.0562 31.9748 19.8567C38.2302 19.0028 44.5596 19.3142 49.4987 23.4281C49.4164 23.2975 49.3341 23.1669 49.2515 23.0368C48.0913 21.235 46.882 19.4552 45.6041 17.7275C32.3768 17.5133 26.8694 5.66007 27.876 0.26154C32.1994 -0.572048 35.9189 0.634766 39.5516 3.20092C43.1838 5.76745 45.67 9.80348 46.5995 14.0166C46.7377 14.6415 46.8427 15.2694 46.9168 15.8985C47.4266 16.5601 47.9272 17.2277 48.4205 17.8991C50.7587 21.1321 52.9237 24.4809 54.8185 27.9914C53.7766 20.1281 58.2121 14.3606 63.7189 9.68496C66.6134 12.7483 67.7423 17.491 66.9336 21.8646C66.1246 26.2376 63.5005 30.1856 60.0641 32.7947C59.3223 33.3585 58.5452 33.8614 57.7408 34.3058C59.7085 39.5085 60.7615 45.014 60.9679 50.5642C63.9779 44.3118 70.0694 41.5645 76.5453 40.0551C77.7184 44.1028 76.5536 48.837 73.8344 52.3567C71.1151 55.8758 66.976 58.1866 62.7269 58.9357C62.0246 59.06 61.3204 59.1416 60.6166 59.186C59.9636 64.7214 58.4971 70.1673 56.2848 75.2649C62.0785 69.2182 69.591 69.3302 76.8434 71.0479C76.091 75.1941 72.9397 78.9145 68.9376 80.8548C64.9362 82.795 60.2009 83.0207 56.063 81.7991C55.191 81.5418 54.3462 81.223 53.5307 80.8505C50.7594 85.8461 47.3285 90.4602 43.4024 94.6105C50.4841 91.3001 57.2812 93.7112 63.3868 97.4559C61.3772 101.16 57.2217 103.71 52.8137 104.304C48.4063 104.897 43.8375 103.633 40.288 101.18C39.5663 100.681 38.8867 100.136 38.2482 99.5517C37.0003 100.638 35.7169 101.682 34.4018 102.682C31.7617 104.694 28.9994 106.567 26.233 108.4C35.6114 104.472 43.1514 108.618 49.4627 114.334C46.6309 117.814 41.7813 119.665 37.0527 119.419C32.3248 119.173 27.7922 116.951 24.5611 113.687C23.729 112.847 22.9807 111.941 22.3149 110.986C15.1218 115.75 7.78927 120.827 3.00251 128.077C2.65993 128.596 1.96848 128.751 1.44105 128.421L0.889473 128.077C-0.0357056 127.5 -0.279633 126.264 0.349785 125.373C5.66582 117.849 13.3141 112.714 21.018 107.754Z" fill="#0A59BE"/>
</svg>
