<?xml version="1.0" encoding="UTF-8"?>
<svg id="Layer_1" data-name="Layer 1" xmlns="http://www.w3.org/2000/svg" version="1.1" viewBox="0 0 1080 365">
  <defs>
    <style>
      .cls-1 {
        fill: #0073fe;
        stroke-width: 0px;
      }
    </style>
  </defs>
  <path class="cls-1" d="M264.7,174.1c1.2.9,2.1,1.6,3.1,2.1,27,14.1,41.7,36.8,45.6,66.6,5,38-13.9,76.4-46.6,95.4-15.3,8.9-32.1,12.8-49.5,14-7.7.5-15.5,0-23.2.3-4,.2-5.2-1.3-5.2-5.2.1-25.1,0-50.1,0-75.2,0-24.9,0-49.8,0-74.7,0-6.4-.1-6.5-6.5-6.5-19.9,0-39.7,0-59.6,0-6.2,0-6.4.2-6.4,6.6,0,49.5,0,98.9,0,148.4,0,6.5,0,6.5-6.7,6.5-23.4,0-46.8,0-70.2,0-7.2,0-7.2,0-7.2-7.1,0-101.5,0-202.9,0-304.4,0-4,0-8.1,0-12.1,0-8.2,0-8.2,8.3-8.2,15.8,0,31.6,0,47.5,0,38.7,0,77.4-1,116.1.5,45.3,1.7,80.3,30.4,87.5,76.6,4.3,27.6-3.3,52.3-23.7,72.3-.7.7-1.4,1.4-2.1,2.2-.3.4-.5.8-1.2,1.8ZM196.9,132.9c.1-24.1-19.6-44.2-43.5-44.5-24.2-.3-44.7,20-44.9,44.4-.1,24.1,19.6,44.3,43.6,44.5,24.3.3,44.7-20,44.8-44.4Z"/>
  <g>
    <path class="cls-1" d="M396.9,34.5v108.5h-19V34.5h19ZM420.9,96.9h-29.8v-16h28.8c5.2,0,9.3-1.3,12-3.9,2.8-2.6,4.2-6.4,4.2-11.2s-1.4-8.2-4.3-10.7c-2.9-2.5-7-3.7-12.5-3.7h-28.8v-16.8h30.4c10.8,0,19.2,2.6,25.4,7.9,6.1,5.2,9.2,12.4,9.2,21.5s-1.6,12-4.8,16.4c-3.2,4.4-7.9,7.6-14.1,9.6v-2.1c6.7,1.6,11.8,4.6,15.3,8.9,3.5,4.4,5.2,10,5.2,16.9s-1.4,11.4-4.2,15.8c-2.8,4.4-6.8,7.8-12.1,10.1-5.3,2.3-11.7,3.5-19.1,3.5h-31.3v-16.8h30.4c5.4,0,9.6-1.3,12.5-3.9,2.9-2.6,4.3-6.3,4.3-11.1s-1.5-8.1-4.4-10.6c-2.9-2.5-7.1-3.8-12.4-3.8Z"/>
    <path class="cls-1" d="M517.8,69.4v16.8h-6.7c-6.6,0-11.8,1.8-15.6,5.3-3.8,3.5-5.6,8.8-5.6,16v35.6h-18.1v-73.2h17.1l1.5,15.1h-1.8c1-4.8,3.3-8.8,7-11.9,3.7-3.1,8.4-4.6,14.2-4.6s2.6,0,3.9.1c1.3.1,2.7.3,4.2.7Z"/>
    <path class="cls-1" d="M539.1,55c-3.1,0-5.7-1.1-7.8-3.2-2.1-2.1-3.2-4.7-3.2-7.8s1.1-5.6,3.2-7.7c2.1-2.1,4.7-3.1,7.8-3.1s5.7,1,7.8,3.1c2.1,2.1,3.2,4.7,3.2,7.7s-1.1,5.7-3.2,7.8c-2.1,2.1-4.7,3.2-7.8,3.2ZM530.2,143v-73.3h18.1v73.3h-18.1Z"/>
    <path class="cls-1" d="M562.8,104.7c0-7.1,1.5-13.5,4.4-19.1,2.9-5.6,7-10,12.2-13.3,5.2-3.3,11.3-4.9,18.3-4.9s11.6,1.4,16,4.1c4.5,2.7,7.6,6.5,9.4,11.4l-1.9,1.6,1.5-14.8h16.8v69.6c0,8.1-1.6,15.2-4.7,21.2-3.1,6-7.5,10.6-13.2,13.8-5.7,3.2-12.5,4.8-20.6,4.8s-19.1-2.8-25.8-8.5c-6.7-5.6-10.7-13.4-11.9-23.2h18.1c.6,4.7,2.6,8.5,6,11.1s7.9,4,13.6,4,11.2-1.8,14.9-5.4c3.7-3.6,5.6-8.5,5.6-14.6v-18.3l2.1,1.9c-1.8,4.7-5,8.4-9.8,11.1-4.8,2.8-10.2,4.2-16.5,4.2s-13-1.6-18.1-4.8c-5.1-3.2-9.2-7.5-12-13.1-2.9-5.5-4.3-11.9-4.3-19ZM581.1,104.3c0,4.2.8,7.8,2.4,11.1,1.6,3.2,3.9,5.8,6.9,7.6,3,1.9,6.4,2.8,10.4,2.8s7.7-.9,10.8-2.7c3-1.8,5.3-4.4,7-7.6,1.6-3.2,2.4-7,2.4-11.2s-.8-7.9-2.4-11.1c-1.6-3.1-3.9-5.6-6.9-7.3-3-1.8-6.7-2.7-10.9-2.7s-7.6.9-10.5,2.7c-3,1.8-5.2,4.3-6.8,7.5-1.6,3.2-2.4,6.8-2.4,10.8Z"/>
    <path class="cls-1" d="M676.2,143h-18.1V32.6h18.3v46.6c2.3-3.6,5.5-6.4,9.6-8.5,4.1-2.1,8.8-3.2,14.2-3.2,9,0,15.9,2.7,20.6,8.2,4.7,5.4,7.1,12.9,7.1,22.3v45.1h-18.1v-40.8c0-4.2-.6-7.6-1.9-10.2-1.3-2.7-3.1-4.7-5.3-6-2.3-1.3-4.9-2-8-2s-7,.8-9.7,2.4c-2.7,1.6-4.8,3.9-6.2,6.8-1.4,2.9-2.2,6.1-2.2,9.8v40.1Z"/>
    <path class="cls-1" d="M738.3,69.7h46.3v15.1h-46.3v-15.1ZM770.5,143h-18.1V46.9h18.1v96.2Z"/>
    <path class="cls-1" d="M396.9,212.7v108.5h-19v-108.5h19Z"/>
    <path class="cls-1" d="M436.4,321.2h-18.1v-73.3h16.8l1.5,9.5c2.3-3.7,5.5-6.5,9.7-8.6,4.2-2.1,8.8-3.1,13.7-3.1,9.2,0,16.2,2.7,20.9,8.2,4.7,5.4,7.1,12.9,7.1,22.3v45.1h-18.1v-40.8c0-6.1-1.4-10.7-4.2-13.7-2.8-3-6.5-4.5-11.3-4.5s-10,1.8-13.2,5.3c-3.2,3.6-4.8,8.3-4.8,14.2v39.5Z"/>
    <path class="cls-1" d="M535.8,323.1c-7.1,0-13.2-1.6-18.3-4.8-5.1-3.2-9.1-7.7-11.9-13.4-2.8-5.7-4.2-12.4-4.2-20s1.4-14.4,4.2-20.3c2.8-5.9,6.9-10.5,12.2-13.9,5.3-3.4,11.7-5,19-5s9.8,1,14.1,3c4.3,2,7.5,4.9,9.8,8.5v-46.5h18v110.4h-16.6l-1.2-11.4c-2.2,4.2-5.5,7.4-10,9.8-4.5,2.4-9.5,3.6-15.1,3.6ZM539.8,306.5c4.3,0,7.9-.9,11-2.7,3.1-1.8,5.5-4.5,7.2-7.9,1.7-3.4,2.6-7.3,2.6-11.7s-.9-8.3-2.6-11.7c-1.7-3.3-4.1-5.9-7.2-7.9-3.1-1.9-6.7-2.9-11-2.9s-7.8,1-10.8,2.9c-3.1,1.9-5.4,4.6-7.1,7.9-1.6,3.4-2.4,7.2-2.4,11.6s.8,8.2,2.4,11.6c1.6,3.4,4,6,7.1,7.9,3.1,1.9,6.7,2.8,10.8,2.8Z"/>
    <path class="cls-1" d="M647.3,247.8h18.1v73.3h-16.8l-1.3-9.8c-2.2,3.5-5.4,6.3-9.8,8.5-4.4,2.2-9,3.3-14,3.3-8.4,0-15-2.7-19.7-8-4.8-5.3-7.1-12.5-7.1-21.4v-45.9h18.1v39.5c0,6.9,1.3,11.9,4,15,2.7,3.1,6.5,4.6,11.6,4.6s10-1.7,12.8-5.1c2.8-3.4,4.2-8.6,4.2-15.5v-38.4Z"/>
    <path class="cls-1" d="M677,298.9h17.2c0,3.2,1.3,5.7,3.6,7.6,2.3,1.9,5.4,2.8,9.5,2.8s7.6-.8,9.9-2.4c2.2-1.6,3.3-3.7,3.3-6.4s-.6-3.4-1.8-4.8c-1.2-1.4-3.4-2.4-6.7-3.1l-13.2-3.1c-6.6-1.5-11.6-3.9-14.8-7.2-3.2-3.3-4.8-7.9-4.8-13.7s1.3-8.9,3.8-12.3c2.5-3.5,6-6.1,10.3-7.9,4.4-1.8,9.4-2.7,15-2.7s10.2,1,14.4,3c4.2,2,7.4,4.8,9.7,8.3,2.3,3.6,3.5,7.7,3.6,12.5h-17.2c0-3.2-1-5.7-3-7.5-2-1.8-4.8-2.7-8.3-2.7s-6.3.8-8.3,2.4c-2,1.6-3,3.7-3,6.4,0,4.1,3.2,6.8,9.5,8.3l13.2,3.1c6.1,1.4,10.8,3.6,13.9,6.7,3.1,3.1,4.7,7.4,4.7,13.1s-1.3,9.2-3.9,12.8c-2.6,3.6-6.2,6.4-10.8,8.3-4.7,1.9-10,2.9-16,2.9-9.1,0-16.4-2.2-21.7-6.7-5.4-4.5-8.1-10.3-8.1-17.5Z"/>
    <path class="cls-1" d="M744.1,247.8h46.3v15.1h-46.3v-15.1ZM776.3,321.2h-18.1v-96.2h18.1v96.2Z"/>
    <path class="cls-1" d="M847.8,247.5v16.8h-6.7c-6.6,0-11.8,1.8-15.6,5.3-3.8,3.5-5.6,8.8-5.6,16v35.6h-18.1v-73.2h17.1l1.5,15.1h-1.8c1-4.8,3.3-8.8,7-11.9,3.7-3.1,8.4-4.6,14.2-4.6s2.6,0,3.9.1c1.3,0,2.7.3,4.2.7Z"/>
    <path class="cls-1" d="M869,233.1c-3.1,0-5.7-1.1-7.8-3.2-2.1-2.1-3.2-4.7-3.2-7.8s1.1-5.6,3.2-7.7c2.1-2.1,4.7-3.1,7.8-3.1s5.7,1,7.8,3.1c2.1,2.1,3.2,4.7,3.2,7.7s-1.1,5.7-3.2,7.8-4.7,3.2-7.8,3.2ZM860.1,321.2v-73.3h18.1v73.3h-18.1Z"/>
    <path class="cls-1" d="M929.8,323.1c-7.2,0-13.6-1.7-19.2-5-5.6-3.3-10-7.9-13.1-13.7-3.2-5.8-4.8-12.4-4.8-20s1.5-14.3,4.6-20.2c3.1-5.8,7.4-10.4,12.9-13.7,5.5-3.3,11.9-5,19-5s13.8,1.6,19.1,4.7,9.5,7.4,12.4,13c2.9,5.5,4.4,12.2,4.4,19.9v5.5h-62.9c0,.1.3-11.4.3-11.4h44.7c0-5-1.6-9.1-4.8-12.2-3.2-3.1-7.5-4.6-13-4.6s-7.8.9-10.8,2.7c-2.9,1.8-5.1,4.5-6.6,8-1.5,3.6-2.2,7.9-2.2,13.1,0,7.9,1.7,13.9,5.1,18,3.4,4.1,8.5,6.1,15.2,6.1s9-.9,12.2-2.8c3.2-1.9,5.3-4.5,6.3-8h16.8c-1.6,8-5.5,14.3-11.8,18.9-6.3,4.6-14.2,6.8-23.8,6.8Z"/>
    <path class="cls-1" d="M974,298.9h17.2c0,3.2,1.3,5.7,3.6,7.6,2.3,1.9,5.4,2.8,9.5,2.8s7.6-.8,9.9-2.4c2.2-1.6,3.3-3.7,3.3-6.4s-.6-3.4-1.8-4.8c-1.2-1.4-3.4-2.4-6.7-3.1l-13.2-3.1c-6.6-1.5-11.6-3.9-14.8-7.2-3.2-3.3-4.8-7.9-4.8-13.7s1.3-8.9,3.8-12.3c2.5-3.5,6-6.1,10.3-7.9,4.4-1.8,9.4-2.7,15-2.7s10.2,1,14.4,3c4.2,2,7.4,4.8,9.7,8.3,2.3,3.6,3.5,7.7,3.6,12.5h-17.2c0-3.2-1-5.7-3-7.5-2-1.8-4.8-2.7-8.3-2.7s-6.3.8-8.3,2.4c-2,1.6-3,3.7-3,6.4,0,4.1,3.2,6.8,9.5,8.3l13.2,3.1c6.1,1.4,10.8,3.6,13.9,6.7,3.1,3.1,4.7,7.4,4.7,13.1s-1.3,9.2-3.9,12.8c-2.6,3.6-6.2,6.4-10.8,8.3-4.7,1.9-10,2.9-16,2.9-9.1,0-16.4-2.2-21.7-6.7-5.4-4.5-8.1-10.3-8.1-17.5Z"/>
  </g>
</svg>